<svg width="18" height="31" viewBox="0 0 18 31" fill="none" xmlns="http://www.w3.org/2000/svg">
<path fill-rule="evenodd" clip-rule="evenodd" d="M0.4896 7.73267L12.2646 0.646665L17.1248 3.8868L17.1248 16.6102L6.56843 23.0358L6.56843 30.53L0.489603 26.7L0.4896 7.73267ZM6.56843 21.2798L15.6248 15.7672L15.6248 5.69552L12.5763 7.74336L12.5763 13.6825L6.56843 17.6076L6.56843 21.2798ZM6.56843 15.8158L11.0763 12.8707L11.0763 8.70476L6.56843 11.5533L6.56843 15.8158ZM5.06843 11.5465L1.9896 9.54048L1.9896 25.8722L5.06843 27.812L5.06843 11.5465ZM2.65222 8.18191L5.82464 10.2489L11.4168 6.71525L15.0263 4.29056L12.2235 2.42205L2.65222 8.18191Z" fill="#2B2B2B"/>
</svg>
