<svg width="147" height="31" viewBox="0 0 147 31" fill="none" xmlns="http://www.w3.org/2000/svg">
<path d="M35.4518 5.05104C36.8678 5.05104 38.1518 5.25504 39.3038 5.66304C40.4558 6.04704 41.4398 6.59904 42.2558 7.31904C43.0718 8.03904 43.6958 8.91504 44.1278 9.94704C44.5838 10.955 44.8118 12.083 44.8118 13.331C44.8118 14.579 44.5838 15.731 44.1278 16.787C43.6958 17.819 43.0718 18.707 42.2558 19.451C41.4398 20.195 40.4558 20.771 39.3038 21.179C38.1518 21.587 36.8678 21.791 35.4518 21.791H29.6198V29.171H26.5598V5.05104H35.4518ZM35.1278 18.911C37.0958 18.911 38.6558 18.419 39.8078 17.435C40.9838 16.427 41.5718 15.083 41.5718 13.403C41.5718 11.747 40.9838 10.427 39.8078 9.44304C38.6558 8.43504 37.0958 7.93104 35.1278 7.93104H29.6198V18.911H35.1278Z" fill="#2B2B2B"/>
<path d="M49.1483 10.739H52.0283V14.807C52.7723 13.319 53.7803 12.215 55.0523 11.495C56.3243 10.751 57.7043 10.379 59.1923 10.379V13.511C58.4003 13.511 57.5723 13.667 56.7083 13.979C55.8683 14.267 55.1003 14.699 54.4043 15.275C53.7083 15.851 53.1323 16.571 52.6763 17.435C52.2443 18.275 52.0283 19.259 52.0283 20.387V29.171H49.1483V10.739Z" fill="#2B2B2B"/>
<path d="M79.5205 29.171H76.6405V25.643C75.9205 26.843 74.9605 27.791 73.7605 28.487C72.5605 29.183 71.2045 29.531 69.6925 29.531C68.6605 29.531 67.7365 29.363 66.9205 29.027C66.1045 28.667 65.4085 28.187 64.8325 27.587C64.2805 26.987 63.8605 26.279 63.5725 25.463C63.2845 24.623 63.1405 23.723 63.1405 22.763V10.739H66.0205V22.187C66.0205 23.699 66.4525 24.851 67.3165 25.643C68.1805 26.411 69.2965 26.795 70.6645 26.795C71.5045 26.795 72.2725 26.603 72.9685 26.219C73.6885 25.811 74.3125 25.295 74.8405 24.671C75.3685 24.023 75.7885 23.315 76.1005 22.547C76.4365 21.755 76.6165 20.963 76.6405 20.171V10.739H79.5205V29.171Z" fill="#2B2B2B"/>
<path d="M85.289 10.739H88.169V14.267C88.889 13.067 89.849 12.119 91.049 11.423C92.249 10.727 93.605 10.379 95.117 10.379C96.173 10.379 97.097 10.559 97.889 10.919C98.705 11.255 99.389 11.723 99.941 12.323C100.517 12.923 100.949 13.643 101.237 14.483C101.525 15.299 101.669 16.187 101.669 17.147V29.171H98.789V17.723C98.789 16.211 98.357 15.071 97.493 14.303C96.629 13.511 95.513 13.115 94.145 13.115C93.305 13.115 92.525 13.319 91.805 13.727C91.109 14.111 90.497 14.627 89.969 15.275C89.441 15.899 89.021 16.607 88.709 17.399C88.397 18.167 88.217 18.947 88.169 19.739V29.171H85.289V10.739Z" fill="#2B2B2B"/>
<path d="M109.057 20.783C109.153 21.599 109.369 22.379 109.705 23.123C110.065 23.843 110.521 24.467 111.073 24.995C111.625 25.523 112.285 25.943 113.053 26.255C113.821 26.567 114.661 26.723 115.573 26.723C116.821 26.723 117.877 26.471 118.741 25.967C119.605 25.439 120.253 24.791 120.685 24.023H124.177C123.625 25.655 122.593 26.975 121.081 27.983C119.593 28.991 117.757 29.495 115.573 29.495C114.253 29.495 113.005 29.243 111.829 28.739C110.677 28.235 109.669 27.551 108.805 26.687C107.941 25.823 107.257 24.815 106.753 23.663C106.249 22.511 105.997 21.275 105.997 19.955C105.997 18.611 106.237 17.363 106.717 16.211C107.197 15.035 107.857 14.015 108.697 13.151C109.537 12.287 110.521 11.615 111.649 11.135C112.801 10.631 114.037 10.379 115.357 10.379C116.653 10.379 117.853 10.571 118.957 10.955C120.061 11.339 121.021 11.879 121.837 12.575C122.677 13.271 123.349 14.111 123.853 15.095C124.381 16.055 124.693 17.135 124.789 18.335C124.837 18.719 124.861 19.067 124.861 19.379C124.861 19.451 124.849 19.607 124.825 19.847C124.825 20.063 124.813 20.375 124.789 20.783H109.057ZM121.513 18.335C121.441 17.543 121.237 16.835 120.901 16.211C120.589 15.563 120.157 15.011 119.605 14.555C119.077 14.099 118.453 13.751 117.733 13.511C117.013 13.271 116.221 13.151 115.357 13.151C114.517 13.151 113.749 13.283 113.053 13.547C112.357 13.811 111.745 14.183 111.217 14.663C110.689 15.119 110.245 15.659 109.885 16.283C109.549 16.907 109.309 17.591 109.165 18.335H121.513Z" fill="#2B2B2B"/>
<path d="M127.654 19.991C127.654 18.647 127.882 17.399 128.338 16.247C128.818 15.071 129.466 14.051 130.282 13.187C131.098 12.323 132.07 11.639 133.198 11.135C134.326 10.631 135.55 10.379 136.87 10.379C138.526 10.379 139.894 10.679 140.974 11.279C142.054 11.855 142.93 12.647 143.602 13.655V3.25104H146.482V29.171H143.602V26.255C142.93 27.263 142.054 28.055 140.974 28.631C139.894 29.207 138.526 29.495 136.87 29.495C135.55 29.495 134.326 29.243 133.198 28.739C132.07 28.235 131.098 27.551 130.282 26.687C129.466 25.823 128.818 24.815 128.338 23.663C127.882 22.511 127.654 21.287 127.654 19.991ZM143.602 18.551C143.458 17.759 143.194 17.039 142.81 16.391C142.45 15.719 141.994 15.155 141.442 14.699C140.89 14.219 140.254 13.859 139.534 13.619C138.814 13.355 138.046 13.223 137.23 13.223C136.222 13.223 135.31 13.415 134.494 13.799C133.678 14.159 132.994 14.651 132.442 15.275C131.89 15.899 131.458 16.619 131.146 17.435C130.858 18.251 130.714 19.103 130.714 19.991C130.714 20.855 130.858 21.695 131.146 22.511C131.458 23.303 131.89 24.011 132.442 24.635C132.994 25.235 133.678 25.727 134.494 26.111C135.31 26.471 136.222 26.651 137.23 26.651C138.094 26.651 138.886 26.519 139.606 26.255C140.326 25.967 140.962 25.595 141.514 25.139C142.066 24.659 142.522 24.107 142.882 23.483C143.242 22.859 143.482 22.187 143.602 21.467V18.551Z" fill="#2B2B2B"/>
<path d="M1.2396 8.15667L12.244 1.53436L16.3748 4.28819M1.2396 8.15667L5.81843 11.14M1.2396 8.15667L1.2396 26.2861L5.81843 29.171L5.81843 22.6143M5.81843 11.14L5.81843 14.7462L5.81843 17.2017M5.81843 11.14L5.81843 15.3035M5.81843 11.14L11.8263 7.34366M16.3748 4.28819L16.3748 16.1887L5.81843 22.6143M16.3748 4.28819L11.8263 7.34366M5.81843 22.6143L5.81843 17.2017M5.81843 17.2017L11.8263 13.2766L11.8263 7.34366" stroke="#2B2B2B" stroke-width="1.5"/>
</svg>
